<svg xmlns="http://www.w3.org/2000/svg" xml:space="preserve" fill-rule="evenodd" clip-rule="evenodd" image-rendering="optimizeQuality" shape-rendering="geometricPrecision" text-rendering="geometricPrecision" viewBox="0 0 6773.32 3386.66">
  <path fill="#efb559" d="M1955.72 830.03c-201.13-164.94-247.97-525.96-864.26-524.36-87.5.23-201.97-181.79-285.17-168.37-6.15 76.77 36.69 167.61 42.57 246.02-187.17 43.57-274.74 167.61-339.06 304.56-135.11 287.7-533.52 144.03-204.25 454.47 113.02 106.56 519.85-220.74 573.31 230.43 59.98 506.22 40.29 491.69 423.05 735.42-25.76 94.21-411.18 711.86-506.67 837.8-.17.23-168.69 71.47-186.62 263.84 216.68-37.2 503.64-235.64 616.04-469.69 72.32-150.59 233-203.94 390.17-422.56 54.4-75.66 90.23-66.25 203.75-81.13-25.97 201.39 6.48 820.16 247.28 912.95 24.1-39.85-2.2-312.78-23.08-357.53-33.01-70.73 61.34-135.35 7.11-329.36-28.35-101.44 113.3-272.21 198.9-298.6 259.21-79.92 348.01-216.05 502.87-273.35l160.09 353.74c264.26 470.95 84.4 470.86-42.39 718.24-63.12 123.16-101.79 25.46-157.18 105.12-81.17 116.72-40.04 55.53-112.8 140.58 632.92-18.18 307.34-46.06 451.75-139.78 108.37-70.33 182.2-254.36 272.28-354.94 103.47-115.54-135.76-340.88 36.87-596.38 23.81 12.05 91.23 92.76 152.86 127.33 251.02 140.8 505.78 48.48 710.65 118.46 115.81 39.56 289.7 406.94 289.74 407.14 38.12 197.9-109.47-113.67 92.33 290.82.03-.04 124.37-334.32 114.21-363.23-10.67-30.36-47.65-49.27-58.25-70.51-44.33-88.85-100.35-471.52-310.86-526.25-549.67-142.9-292.04-132.41-296.86-568.38-2.62-237.14-126.77-286.2-134.41-347.32 396.25-54.83 668.91 579.39 1397.36 652.56 905.76 90.99 1348.02-648.12 1266.83-775.65-87.75-137.82-755.76 339.37-1558.55 101.99-325.06-96.12-758.41-335.48-1110.05-237.07-546.36 152.91-100.85-82.95-1187.67 39.24-229.54 25.81-625.55-16.24-771.89-136.25z"/>
  <path fill="none" d="M0 0h6773.32v3386.66H0z"/>
</svg>
