<svg xmlns="http://www.w3.org/2000/svg" xml:space="preserve" fill-rule="evenodd" clip-rule="evenodd" image-rendering="optimizeQuality" shape-rendering="geometricPrecision" text-rendering="geometricPrecision" viewBox="0 0 6773.32 3386.66">
  <path fill="#efb559" d="M1738.43 606.94c-185.15-216.84-376.39-261.3-646.47-270.64-74.75-2.59-198.28-182.07-278.18-174.7-7.16 75.41 31.16 168.88 39.15 244.43C402.53 597.27 651.73 645.12 365.4 848c-232.89 165.02-268.42 114.08-100.15 275.23 94.85 90.84 39.25 67.31 253.4 39.55 440.24-57.06 321.45 229.21 390.02 536.57 44.2 198.09 245.55 428.27 467.36 455.57 0 .07-277.61 774.13-416.62 870.56-1.61 1.12-203.67 72.33-208.61 212.24 701.41-155.3 330.06-135 935.16-844.22.95 131.66 8.3 586.99 99.48 664.05 73.78 62.36 99.57 119.56 132.95 114.39 3.08-272.14-45.97-336.85 3.31-488.98 57.95-178.89-124.84-372.19 317.94-493.79 302.16-83 384.35-244.77 562.82-296.77 11.08 21.22 15.49 86.91 71.08 195.31 291.72 568.87 399.92 401.51 153.61 905.64-91.3 186.87 7.92-78.92-281.76 238.22 467.72 25.7 364.87 69.67 671.13-466.91 136.33-238.84-102.62-284.88-19.93-571.92 33.61 10.48 107.03 67.17 169.8 91.69 243.56 95.16 517.41 18.51 665.37 113.46 76.44 49.06 241.54 389.54 237.66 419.19-9.2 70.4-34.19 88.75 85.64 263.5 168.55-324.21 98.32-369 52.72-516.85-163.68-530.73-267.3-415.48-550.5-533.96-185.81-77.73 16.68-304.27-30.85-579.36-33.58-194.35-106.34-181.18-105.94-248.15 266.03-103.91 725.77 589.54 1396.9 659.93 893.79 93.74 1360.79-634.1 1271.98-763.97-88.27-129.07-782.49 323.07-1575.03 85.2-319.07-95.77-739.8-332.66-1099.29-239.07-520.96 135.63-111.58-76.08-1197.7 45.45-675.29 75.56-782.56-152.88-978.92-382.86z"/>
  <path fill="none" d="M0 0h6773.32v3386.66H0z"/>
</svg>
