<svg xmlns="http://www.w3.org/2000/svg" xml:space="preserve" fill-rule="evenodd" clip-rule="evenodd" image-rendering="optimizeQuality" shape-rendering="geometricPrecision" text-rendering="geometricPrecision" viewBox="0 0 6773.32 3386.66">
  <path fill="#efb559" d="M2731.86 1029c-1120.37 161.91-770.41-614.7-1623.47-635.32-95.34-2.3-187.5-188.63-286.23-182.58l32.48 246.1c-217.02 105.33-245.23 84.22-348.7 294.44C409.28 948.01-2.6 958.58 221.31 1133.32c224.29 175.09 69.18 57.86 379.58 70.22 523.86 20.86 2.65 951.94 913.18 1032.88-321.71 879.82 129.54 863.52-229.58 879.8-53.01 60.95-128.05 116.62-134.49 144.91 296.82 17.55 529.24 62.13 604.61-305.01 43.96-214.14-40.35-87.87 93.99-370.49 50.54-106.31 103.78-218.71 118.84-347.99 93.36-21.84 205.99-11.72 306.66-32.13 289.03-58.6 471.31-305.93 668.39-322.86 25.86 415.51 476.49 552.37 518.47 852.79 56.52 404.52-173.57 383.56-214.79 434.38-21.5 26.51-67.35 71.15-106.75 87.76 10.65 6.72 378.14 44.91 399.24 34.72 57.47-27.75 230.86-596.3 210.13-664.08-26.18-85.6-114.67-178.23-140.53-299.89 271.07 20.12 494.65 37.76 586.69 233.18 236.69 502.57-4.47 220 173.84 591.97 38.5-54.25 176.4-326.58 149.33-373.39-92.77-160.42-98.83-534.67-277-603.84-592.91-230.19-248.52-227.57-256.84-660.68-4.12-214.79-66.96-206.95-70.12-286.44 406.69-68.45 1080.95 1155.93 2244.9 526.99 152.44-82.37 464.95-350.64 454.98-582.31-202.61-111.53-806.41 298.61-1577.65 63.02-341.58-104.34-728.6-329.55-1100.27-262.86-636.83 114.27-175.61-93.61-1204.26 55.03z"/>
  <path fill="none" d="M0 0h6773.32v3386.66H0z"/>
</svg>
