<svg xmlns="http://www.w3.org/2000/svg" xml:space="preserve" fill-rule="evenodd" clip-rule="evenodd" image-rendering="optimizeQuality" shape-rendering="geometricPrecision" text-rendering="geometricPrecision" viewBox="0 0 6773.32 3386.66">
  <path fill="#efb559" d="M1479.54 510.32c-387.37-184.47-250.64 46.06-505.35-180.73-36.07-32.12-80.43-94.2-143.4-92.39l31.16 245.4C643.32 605.11 647.71 519.8 507.5 769.94c-140.57 250.79-562.73 161.17-223.98 453.92 119.94 103.65 490.4-197.32 578.83 275.99 53.61 286.94 74.58 580.23 448.76 744.06-59.9 119.03-417.37 692.29-142.71 943.4 99.53-90.38 42.54-342.59 134.18-428.67 199.34-187.24-52.28-186.84 258.95-324.79 128.23-56.83 203.19-135.08 247.36-151.88 279.73 1131.63 170.71 645.48-62.95 877.93-19.12 19.02-77.73 64.17-86.96 92.27 851.38 98.32 416.67-446.33 533.64-1056.74 386.28-3.25 517.87-277.77 858.59-328.62 77.47 574.52 984.53 529.53 861.24 1207.68-160.67 72.45 14.89-92.36-226.89 183.58 604.59 14.49 393.13-110.1 441.36-200.02 57.45-107.11 112.74 68.92 73.51-306.43-37.69-360.64-14.05-469.44-349.57-624.54-.18-85.4 72.88-337.64 94.98-433.36 57.8-250.33-22.8-357.99-35.47-452.42 458.79 50.93 686.23 613.59 1380.38 715.12 669.21 97.88 1365.12-342.84 1345.15-701.52-185.62-134.62-773.76 273-1604.44 21.23-236.21-71.59-441.37-181.64-679.11-243.79-405.65-106.04-437.16 34.56-805.64-23.98-573.7-91.14-1197.7 216.38-1595.31-55.71-128.28-87.78-231.66-327.94-471.86-442.33z"/>
  <path fill="none" d="M0 0h6773.32v3386.66H0z"/>
</svg>
