<svg xmlns="http://www.w3.org/2000/svg" xml:space="preserve" fill-rule="evenodd" clip-rule="evenodd" image-rendering="optimizeQuality" shape-rendering="geometricPrecision" text-rendering="geometricPrecision" viewBox="0 0 6773.32 3386.66">
  <path fill="#efb559" d="M2735.58 1041.99c-1119.11 171.56-777.89-602.74-1626.91-629.18-88.3-2.75-186.08-191.62-270.47-185.49-21.64 51.29 19.88 184.11 23.69 245.84-222.16 73.01-272.33 133.25-353.63 288.39-149.32 284.94-540.23 116.27-232.36 444.23 103.17 113.9 493.75-168.86 580.02 240.38 116.5 552.61 11.93 397.94 385.5 755.17-22.45 26.7-65.35 49.29-95.25 79.34-175.15 176.01-413.89 631.11-257.17 854.8 84.37-64.14 127.77-242.68 158.5-336.15 10.68-32.48 99.11-91.33 125.14-119.66 52.68-57.34 47.38-117 81.83-164.26 36.22-49.69 328.16-70.64 492.39-243.6 226.65-238.69 320.51 226.76 437.18 471.67 174.87 367.07-57.06 204.83-112.52 562.19l279.27-150.51c85.75-45.95 131.21-220.9 118.73-291.78-74.27-421.77-86.03 44.45-137.85-698.47 222.27-31.79 367.1-223.28 572.39-256.24 369.28 646.73 752.01 236.69 644.92 1054.97-20.85 159.33-29.74-160.62-94.71 304.5 397.18-237.78 256.33-238.66 301.53-349.6 40.67-99.82 101.46-439.18 44.99-558.04 244.89 60.31 526.32 382.46 492.41 647.12-121.92 60.23-80.5 108.55-135.71 246.27 94.17-25.81 150.37-92.67 256.19-118.06 184.23-44.2 88.1-323.35 27.52-541.54-50.4-181.51 9.45-138.35-127.38-244.97-426.02-331.97-82.63-665.39-387.13-1102.76 521.87 134.62 683.27 629.83 1352.32 730.82 694.69 104.86 1394.84-330 1374.31-672.77-134.98-88.03-443.14 38.01-785.6 65.47-1226.31 98.33-866.2-417.27-2099.9-341.29-252.45 15.55-146.1-122.66-1032.24 13.21z"/>
  <path fill="none" d="M0 0h6773.32v3386.66H0z"/>
</svg>
