<svg xmlns="http://www.w3.org/2000/svg" xml:space="preserve" fill-rule="evenodd" clip-rule="evenodd" image-rendering="optimizeQuality" shape-rendering="geometricPrecision" text-rendering="geometricPrecision" viewBox="0 0 6773.32 3386.66">
  <path fill="#efb559" d="M857.57 449.95c-332.98 80.22-293.81 291.5-476.18 413.9-326.36 219.05-251.08 124.84-104.56 315.71 43.05 56.08 100.46 36.15 173.19 25.48 625.31-91.68 287.15 392.21 563.75 753.11 113.49 148.07 196.39 178.82 231.32 218.39-301.48 160.92-575.05 709.78-556.32 799.54 9.49 45.47 19.57 145.28 28.33 174.86 71.59-33.54 222-339.89 222.49-340.5 34.76-43.11 102.64-56.72 152.18-127.09 251.4-357.1 170.42-72.77 512.85-342.07 125.24-98.49 191.37-123.93 440.24-135.39 67.71 247.79 286.31 741.24 259.64 835.23-20.69 72.89-31.41 131.02 57.7 264.72 29.47-18.02 171.47-306.85 123.39-566.92-54.66-295.68-121.03-31.28-100.25-596.86l434.05-227.68c.41.37 410.43 497.9 432.84 565.63 42.17 127.42-61.68 290.19-86.13 398.57-32.68 144.88-82.53 64.58-114.62 138.6-32.08 74.01-20.42 114.63-68.78 183.46 5.23-.8 343.28-119.21 357.11-148.98 16.08-34.62.62-75.17 19.3-107.28 113.05-194.25 109.32-205.04 196.05-438.9 37.58-106.08-249.7-398.9-126.17-545.9 65.55 61.4 46.49 152.54 322.63 274.38 829.93 366.17 625.79 682.74 621.93 1055.66 463.65-500.47 225.04-147.76 236.56-408.96 4.53-102.67-45.72-452.36-172.65-553.13-326.3-259.07-144.16-393.02-432.86-1048.7 456.18 89.61 644.25 717.31 1524.12 716.11 523.08-.61 1085.66-336.59 1131.11-636.81 22.06-145.76-362.69-43.87-451.89-27.78-1285.6 231.89-1479.7-354.32-2220.17-334.82-86.36 2.28-198.15 30.76-276.94 18.65-1122.25-172.49-1422.88 311.76-1925.74-292.9-380.44-457.45-582.35-235.54-783.48-402.16-263.21-218.04-155.04-125.9-144.04 130.83z"/>
  <path fill="none" d="M0 0h6773.32v3386.66H0z"/>
</svg>
