<svg xmlns="http://www.w3.org/2000/svg" xml:space="preserve" fill-rule="evenodd" clip-rule="evenodd" image-rendering="optimizeQuality" shape-rendering="geometricPrecision" text-rendering="geometricPrecision" viewBox="0 0 6773.32 3386.66">
  <path fill="#efb559" d="M1954.3 873.59c-180.61-129.56-254.93-522.89-854.29-526.48-83.9-.5-202.61-184.55-278.74-175.88-18.06 43.24 27.42 189.9 33.5 244.12-213.65 78.35-264.61 133.31-345.11 297.96-154.84 316.7-539.43 110.11-218.38 451.81 107.52 114.44 508.89-198.58 578.5 233.14 39.62 245.77 16.65 555.73 398.14 745.39-83.11 95.07-479.56 457.94-547.74 726.33-61.81 243.31-53.84-198.05-65.93 337.66 72.95.44 267.7-329.85 268.09-330.12 282.55-195.83 125.46-218.08 284.92-306.86 467.22-260.13 347.84-346.12 823.03-366.77 24.69 192.35 160.29 936.25 357.31 1032.75 69.37-122.07-78.18-839.44-78.06-840.21 3.82-25.33 54.44-251.81 59.29-262.59 7.42-7.79 383.79-221.82 410.18-228.6 427.3 844.29 421.92 364.26 177.5 1000.28-38.76 100.86-98.54 22.02-137.02 117.19-19.94 49.31-52.92 123.66-87.12 147.4.48.05 372.43-45.44 391.89-129.74 17-73.62 86.79-115.88 198.58-327.36 119.76-226.57 114.97-104.03 40.67-369.66-42.45-151.78-76.26-304.18 48.55-384.5 381.93 485.19 341.44 208.72 762.43 470.47 382.09 237.56 280.18 590.01 317.95 698.48l37.22 113.58c140.27-352.38 275.54-91.91 49.69-768.69-111.97-335.53-54.34-66.71-341.17-386.21-103.12-114.87-27.39-370.14-253.81-845.42 532.78 147.39 620.03 612.25 1340.65 698.31 609.53 72.79 1314.44-299.34 1318.98-693.43-129.19-93.11-421.99 41.32-776.88 75.21-1025.95 97.99-1265.84-409.8-1908.79-351.66-707.98 64.02-235.8-91.74-1232.41 27.37-238.71 28.53-605.93-4.42-771.62-123.27z"/>
  <path fill="none" d="M0 0h6773.32v3386.66H0z"/>
</svg>
