<svg xmlns="http://www.w3.org/2000/svg" xml:space="preserve" fill-rule="evenodd" clip-rule="evenodd" image-rendering="optimizeQuality" shape-rendering="geometricPrecision" text-rendering="geometricPrecision" viewBox="0 0 6773.32 3386.66">
  <path fill="#efb559" d="M850.69 393.74c-172.95 40.28-271.97 151.87-339.08 296.09-98.18 211.01-482.1 231.53-290.3 384.22 160.64 127.88 54.42 111.19 301.62 75.18 525.73-76.58 253.7 360.73 449.38 689.36 111.92 187.97 199 200.37 300.74 278.07l-608.76 935.32c-.33 1.22-18.9 202.58-18.87 205.73 58.01-2.7 420.7-380.68 450.85-416.91 45.52-54.72 65.01-139.23 109.08-187.38.39-.42 424.53-384.83 477.33-395.15 79.51-15.55 176.37-33.15 261.31-42.57-16.4 265.44 97.82 933.22 307.41 966.17l-41.58-658.7c-62.31-202.25 27.15-337.53 227.44-441.32 88.17-45.69 230.69-166.3 314.89-185.32 57.08 192.84 322.22 535.43 297.64 710.86-18.36 130.98-124.46 217.66-176.14 325.06-77.59 161.24-36.81-46.64-194.18 186.99-20.8 30.88-41.24 50.61-58.1 74.68 219.68-21.78 377.24-21.47 400.75-95.84 10.29-32.56 268.71-365.67 319.12-442.89 57.12-92.43-161.43-488.54 45.42-609.76 427.72 436.5 396.69 175.33 847.24 332.8 178.74 62.47 202.1 197.84 319.89 408.43 79.06 141.35-106.18-91.46 94.4 317.53.41-.56 155.44-328.32 109.13-385.67-113.14-140.09-117.2-501.14-335.88-577.71-566.16-198.25-241.41-284.42-364.6-719.33-46.15-162.92-73.98-135.95-134.71-226.3 371.29-32.98 701.52 594.99 1386.57 675.59 915.26 107.69 1381.48-633.48 1293.82-751.42-57.4-77.22-512.45 92.2-739.56 121.72-1011.71 131.52-1328.63-416.34-1926.27-303.12-640.65 121.37-153.06-85.06-1210.21 37.27-1129.54 130.71-774.73-689.7-1617.89-658.39-113.14 4.2-196.41-172.93-297.01-173.22-9.12 77.73 32.34 169.56 39.11 249.93z"/>
  <path fill="none" d="M0 0h6773.32v3386.66H0z"/>
</svg>
