<svg xmlns="http://www.w3.org/2000/svg" xml:space="preserve" fill-rule="evenodd" clip-rule="evenodd" image-rendering="optimizeQuality" shape-rendering="geometricPrecision" text-rendering="geometricPrecision" viewBox="0 0 6773.32 3386.66">
  <path fill="#efb559" d="M1955.72 830.03c-201.14-164.95-247.96-525.95-864.26-524.36-87.5.23-201.97-181.79-285.17-168.37-6.15 76.77 36.69 167.61 42.57 246.02C661.66 426.89 574.08 551 509.8 687.88c-135.11 287.7-533.52 144.03-204.25 454.47 113.02 106.56 519.86-220.74 573.31 230.43 57.04 481.41 33.51 495.04 422.13 735.42-25.45 92.73-417.77 727.18-505.69 837.94-.16.2-168.8 70.38-186.56 263.7 221.1-37.83 506.87-237.5 618.49-475.18 44.72-95.24 192.02-205.06 271.66-279 148.66-138.04 95.58-210.17 320.46-218.88-20.34 203.76 41.38 710.54 92.82 769.93l153.69 142.27c3.14-5.07.59-619.86-19.97-699.95-20.68-80.56 38.82-120.51 73.66-168.55 159.6-220.05 6.45-40.69 314.15-202.79 101.13-53.28 210.09-157.35 317.96-191.03 39.2 74.9 46.5 153.1 160.14 357.56 261.78 470.97 90.06 462.49-42.41 718.29-64.34 124.25-101.13 25.11-157.06 105.32-80 114.72-34.29 51.21-112.95 140.3 550.4-5.08 299.17-1.16 724.09-494.6 102.14-118.61-136.4-354.55 37.67-595.77 24.52 12.21 88.53 90.9 151.89 126.79 246.17 139.43 507.64 49.09 710.69 118.43 115.42 39.41 289.38 406.36 289.54 407.2 32 165.71-98.33-73.63 94.18 292.18 168.35-350.46 100.61-350.78 37.03-526.86-195.5-541.37-244.52-388.9-572.48-520.04-164.84-65.92 25.88-307.02-32.92-594.06-26.78-130.72-114.5-192.18-119.13-236.07 386.37-57.28 676.37 580.04 1397.11 652.44 905.76 90.99 1348.02-648.12 1266.83-775.65-87.96-138.15-754.73 339.66-1558.55 101.99-327.08-96.71-756.98-335.3-1110.2-236.9-549.93 153.2-93.81-83.87-1187.52 39.07-229.79 25.83-625.64-16.31-771.89-136.25z"/>
  <path fill="none" d="M0 0h6773.32v3386.66H0z"/>
</svg>
