<svg xmlns="http://www.w3.org/2000/svg" xml:space="preserve" fill-rule="evenodd" clip-rule="evenodd" image-rendering="optimizeQuality" shape-rendering="geometricPrecision" text-rendering="geometricPrecision" viewBox="0 0 6773.32 3386.66">
  <path fill="#efb559" d="M1951.9 859c-218.7-177.05-229.79-504.39-859.98-522.45-79.07-2.26-194.5-177.74-280.22-174.83-9.36 71.95 31.42 171.92 40.87 243.95-393.36 192.92-254.69 186.78-366.9 342.47C383.84 889.4 56.61 943.51 203.99 1074.49c180.11 160.12 103.25 111.2 329.92 86.46 567.32-61.92 145.47 415.2 553.01 842.48 131.82 138.2 218.59 124.41 309.41 155.57-.05.56-261.14 765.07-415.82 837.45-1.61.75-210.61 26.74-245.86 172.15 484.39 3.14 366.66-45.1 433.02-80.59 288.73-154.43 135.84-225.97 336.26-458.11 22.91-26.53 104.16-122.32 127.57-132.24 3.74 62.46-37.63 597.04 205.76 665.33.08-.19 9.98-734.66 41.21-767.98 222.09-236.97 171.21-171.51 359.26-216.7 289.26-69.53 417.95-262.76 573.2-292.2 204.02 494.87 426.09 655.1 335.33 896.32-165.06 438.71-100.8 125.35-388.45 443.24 471.66 8.86 332.09 142.53 665.39-454.62 139.62-250.14-73.76-234.28-25.75-553.76 33.89 4.73 118.02 62.99 170.72 81.88 226.15 81.09 510.04 27.35 632.17 130.1 213.61 179.71 158.85 484.31 286.98 684.99 177.19-300.34 120.11-359.46 68.18-524.46-79.71-253.27-128.92-402.07-271.62-447.52-502.41-160.02-302.55-139.86-259.56-567.16 22.4-222.62-102.03-302.73-105.73-375.05 393.49-43.42 689.28 593.46 1406.57 662.93 897.47 86.92 1350.52-638.58 1264.21-764.78-96.44-141.02-756.49 330.87-1575.03 85.2-314.3-94.33-744.19-333.59-1099.3-239.1-506.14 134.68-125.51-74.49-1197.69 45.48-230.35 25.77-617.16-10.76-765.45-130.8z"/>
  <path fill="none" d="M0 0h6773.32v3386.66H0z"/>
</svg>
