<svg xmlns="http://www.w3.org/2000/svg" xml:space="preserve" fill-rule="evenodd" clip-rule="evenodd" image-rendering="optimizeQuality" shape-rendering="geometricPrecision" text-rendering="geometricPrecision" viewBox="0 0 6773.32 3386.66">
  <path fill="#efb559" d="M1950.5 919.91c-261.09-178.9-160.09-458.42-857.71-525.74-61.34-5.92-198.53-187.56-269.82-180.79-14.06 84.03 33.69 162.17 32.16 243.82C666.9 570.56 629.5 500.61 505.94 751.64c-66.39 134.88-308.27 188.19-353.17 281.29-8.28 52.02 86.29 109.04 108.65 136.83 82.17 102.12 132.74 28.07 331.34 33.52 507.01 13.92 77 997.43 893.3 1030.45-109.54 328.11-195.43 514.13-64.4 863.48-.18.03-232.82-10.92-270.68 120.12 2.54 1.21 373.77 68.75 416.99 35.76 294.74-224.96 124.24-324.55 290.66-666.26 50.11-102.88 104.82-222.62 120.98-352.37 817.71-109.54 574.81-283.09 969.59-356.94 9.2 390.37 465.7 560.32 517.8 852.25 71.17 398.8-174.54 390.11-209.73 434.37l-99.11 93.49c-.98-1.61-3.71 3.67-5.35 5.69 611.78 9.33 289.83 152.15 463.5-120.89 73-114.77 147.46-485.59 138.94-512.95-13.8-44.31-110.5-176.74-137.91-291.1 263.22 22.96 463.13 46.1 549.14 242.98 208.69 477.66 22.03 289.63 102.74 439.44 24.69 45.84 48.08 93.04 49.14 149.02.23-.16 203.86-301.01 162.15-369.02-102.39-166.96-61.68-520.64-275.61-612.77-573.42-246.95-225.29-233.56-225.12-663.76.08-216.2-59.2-211.33-65.62-294.04 388.44-84.73 1076.62 1157.15 2244.9 525.89 152.44-82.37 464.95-350.64 454.98-582.31-202.39-111.41-795.23 302.03-1577.65 63.02-343.7-104.99-725.53-328.75-1099.77-262.94-640.72 112.69-178.99-92.79-1203.94 55.08-241.26 34.8-610.42 8.64-782.18-109.06z"/>
  <path fill="none" d="M0 0h6773.32v3386.66H0z"/>
</svg>
