<svg xmlns="http://www.w3.org/2000/svg" xml:space="preserve" fill-rule="evenodd" clip-rule="evenodd" image-rendering="optimizeQuality" shape-rendering="geometricPrecision" text-rendering="geometricPrecision" viewBox="0 0 6773.32 3386.66">
  <path fill="#efb559" d="M1951.4 952.65c-279.6-191.34-188.07-460.65-851.33-527-80.25-8.03-180.1-186.13-269-186.75-17.34 72.79 30.25 174.05 28.74 248.87-232.29 77.9-264.64 125.75-352.31 282.17-141.84 253.07-561.7 158.4-224.08 454.01 118.4 103.67 490.44-197.63 578.93 275.9 58.49 312.99 69.35 560.95 448.64 743.93-57.08 116.12-420.92 688.85-142.59 943.59 83.64-78.82 51.2-336.02 138.79-432.62 232.61-256.54-78.14-168.74 260.36-323.57 129.39-59.18 198.37-132.11 235.85-147.81.58.84 310.59 820.24 59.3 819.56-110.28-.3-203.47 149.08-203.48 149.12 791.63 124.73 481.75-484.65 503.12-667.1 17.41-148.7 25.2-239.17 26.13-394.53 405.55-8.42 530.87-280.07 862.5-323.12 56.77 420.58 496.77 443.66 773.84 784.93 65.92 81.19 109 281.08 89.75 415.91-62.38 50.35-78.17-18.66-133.58 77.94-26.38 46.01-59.96 78.32-95.42 111.99 605.74 14.52 393.11-111.23 441-200.02 53.42-99.04 140.53 86.02 37.42-533.99-30.43-183 28.81-212.58-312.88-397.34-.54-83.98 73.05-339.55 94.92-433.34 57.5-246.53-23.19-359.24-35.65-452.08 493.57 53.84 1120.66 1155.88 2251.88 577.33 154.03-78.78 485.67-347.84 473.65-563.73-185.81-134.75-773.52 273.07-1604.44 21.23-236.21-71.59-441.37-181.64-679.11-243.79-406.12-106.16-438.34 34.96-805.87-24.19-568.6-91.51-1197.08 216.85-1595.08-55.5z"/>
  <path fill="none" d="M0 0h6773.32v3386.66H0z"/>
</svg>
