<svg xmlns="http://www.w3.org/2000/svg" xml:space="preserve" fill-rule="evenodd" clip-rule="evenodd" image-rendering="optimizeQuality" shape-rendering="geometricPrecision" text-rendering="geometricPrecision" viewBox="0 0 6773.32 3386.66">
  <path fill="#efb559" d="M1302.26 433.15c-87.55-22.84-128.23-10.64-209.46-20.39-62.69-7.51-196.35-197.95-273.77-179.49l41.39 239.89C628.4 584.64 617.25 553.57 508.26 761.55 358.93 1046.5-31.96 877.82 275.9 1205.78c105.97 112.89 494.64-167.54 580.03 240.38 119.43 570.56 12.12 395.89 385.55 755.17-367.3 391.88-86.9 107.85-306.82 401.29-87.63 116.93-143.13 429.09-45.66 534.6 36.37-25.13 150.53-291.7 151.1-294.34 30.35-139.89 107.68-70.19 182.26-257.08 85.29-213.75 98.92 17.47 544.61-336.27 235.93-187.25 297.8 262.75 385.42 423.8 253.71 466.35-28.21 250.33-73.01 631.11l278.83-150.48c242.62-127.87 28.68-546.44 9.47-602.36-18.71-54.46-26.76-304.67-32.96-384.14 210.08-39.95 390.75-229.7 569.34-259.11 392.26 534.61 202.53 186.19 559.7 512.27 128.76 117.55 161.94 465.68 32.45 618.21-19.92 23.46-25.33 182.83-34.33 229.17 75.1-36.18 162.56-135.29 190.69-148.24 203.13-93.57 68.52-95.01 108.54-203.63 38.63-104.84 105.42-487.56 44.81-551.25 175.66 20.22 529.49 359.51 485.21 641.39-139.26 86.58-47.94 42.46-136.32 249.07 414.44-165.81 430.55-137.64 283.79-666.39-113.95-410.54-107.94-101.05-311.54-442.01-74.29-124.41-21.46-540.69-133-798.54-22.31-51.57-64.01-88.06-71.07-107.87 185.27 129.38 56.52-43.39 643.09 399.39 1106.22 835.05 2106.76-9.4 2087.24-335.32-124.04-80.89-505.28 42.99-785.6 65.47-799.02 64.07-907.81-151.41-1498.83-320.57-327.67-93.78-421.94-26.58-609.63-20.26-311.72 10.5-106.1-122.41-1031.27 13.88-1015.8 149.64-795.64-445.56-1425.73-609.97z"/>
  <path fill="none" d="M0 0h6773.32v3386.66H0z"/>
</svg>
