<svg xmlns="http://www.w3.org/2000/svg" xml:space="preserve" fill-rule="evenodd" clip-rule="evenodd" image-rendering="optimizeQuality" shape-rendering="geometricPrecision" text-rendering="geometricPrecision" viewBox="0 0 6773.32 3386.66">
  <path fill="#efb559" d="M2185.64 998.05c-353.37-85.84-288.2-195.23-487.88-376.18-174.01-157.68-302.33-237.87-622.5-239.04-59.17-36.14-183.87-181.67-256.19-180.61-6.35 88.03 32.37 165.02 36.67 248.47C485.17 561 603.76 710.71 376.35 867.26 245 957.68 61.36 996.03 226.3 1128.25c100.75 80.76 36.44 104.25 223.72 76.79 406.61-59.62 398.71 95.58 442.93 433.78 49.66 379.82 301.7 474.14 352.5 537.72-236.82 110.56-667.79 712.27-525.78 971.59 20.07-7.24 412.2-594.95 504.27-628.36 431.14-156.47 485.19-342.39 821.2-306.8 34.2 91.41 47.39 191.26 81.37 282.8 34.3 92.41 87.76 157.89 114.88 248.64 106.71 357.12-16.05 357.04 120.81 561.31 35.03-21.01 167.72-319.35 124.59-559.66-52.29-291.35-127.99-60.5-100.9-605.22 150.28-42.98 311.8-205.23 440.14-224.45 55.38 103.39 150.26 215.06 217.63 280.83 366.21 357.48 173.57 436.49 120.91 688.12-28.41 135.78-85.76 56.64-115.41 138.75-27.68 76.63-23.54 115.43-66.46 176.55 4.29-.66 343.47-119.45 357.1-148.97 16.33-35.36-.02-74.56 19.37-107.02 469.15-785.51-150.05-703.52 69.82-985.19 22.11 21.14 39.92 60.25 60.98 87.41 214.96 277.24 762.06 244.62 888.48 770.58 96.68 402.24-1.44-65.58-4.77 472.17 270.76-294.7 338.4-166.19 178.92-722.38-155.7-543.01-201.15 16.39-360.84-740.37-47.39-224.56-113.49-365.16-185.69-548.04 397.1 88.92 1062.02 1112.35 2178.25 571.06 85.51-41.46 977.91-693.66 116.01-536.19-967.27 176.73-1096.47 20.92-1800.17-225.9-445.29-156.18-483.19-59.04-758.15-70.6-100.75-4.24-265.13-44.03-373.86-57.25-362.97-44.13-714.88 151.71-1182.51 38.1z"/>
  <path fill="none" d="M0 0h6773.32v3386.66H0z"/>
</svg>
