<svg xmlns="http://www.w3.org/2000/svg" xml:space="preserve" fill-rule="evenodd" clip-rule="evenodd" image-rendering="optimizeQuality" shape-rendering="geometricPrecision" text-rendering="geometricPrecision" viewBox="0 0 6773.32 3386.66">
  <path fill="#efb559" d="M1949.35 870.02c-204.5-151.67-204.75-493.97-857.5-522.86-71.08-3.15-203.18-182.09-276.98-174.9-15.46 73 34.28 168.8 36.78 242.61-174.32 122.93-208.27 24.82-341.99 298.44-140.71 287.93-542.93 142.18-214.34 456.06C405.39 1274.5 803.27 965.71 871 1406.26c117.58 764.76 212.83 537.87 405.39 743.54-250.57 200.58-628.43 802.08-632.85 848.14-3.18 33.17-6.29 159.9-5.98 192.16 59.22-.02 287.89-281.81 297.57-290.27 245.74-214.71 176.13-262.79 265.79-318.75 359.4-224.32 483.12-392.03 799.08-365.06 29.18 211.8 130.16 955.38 338.87 1027.44 77.7-413.45-154.52-873.42-1.28-1092.93l447.94-238.29c413.66 791.61 418.58 377.66 178.03 992.41-38.6 98.65-94.71 25.37-135.44 109.75-32.65 67.66-53.19 93.61-88.83 153.23 326.82-53.02 348.45-21.4 494.11-281.5 215.09-384.06 211.6-286.03 137.21-532.98-43.03-142.82-80.32-297.93 32.98-385.41 66.4 54.19 43.4 175.61 324.5 290.24 676.35 275.8 510.27 177.3 725 655.42 56.78 126.44-58.29 11.94 8.64 227.85l34.67 120.85c112.21-360.41 293.77-40.02 60.54-783.32-58.02-184.87.25-111.82-148.31-215.56-431.13-301.07-140.96-605.06-435.21-1025.87 470.95 95.52 626.24 610.12 1343.88 701.06 612.75 77.65 1322.15-298.18 1326.7-692.47-194.79-140.4-806.08 258.09-1600.9 11.06-784.5-243.82-474.61-316.45-1283.55-254.45-223.41 17.12-98.81-117.41-1033.63-5.69-243.55 29.1-613.26-5.73-776.57-126.84z"/>
  <path fill="none" d="M0 0h6773.32v3386.66H0z"/>
</svg>
