<svg xmlns="http://www.w3.org/2000/svg" xml:space="preserve" fill-rule="evenodd" clip-rule="evenodd" image-rendering="optimizeQuality" shape-rendering="geometricPrecision" text-rendering="geometricPrecision" viewBox="0 0 6773.32 3386.66">
  <path fill="#efb559" d="M810.23 151.18c-16.35 54.75 33.48 174.86 40.22 242.31-178.91 46.3-271.18 150.93-338.84 296.34-99.41 213.68-487.28 229.76-285.55 387.94 162.68 127.56 39.24 107.16 302.84 70.4 661.26-92.23 25.06 615.24 763.63 968.49l-521.39 804.97c-33.53 57.13-131.96 25.68-159.83 288.82 148.77-6.01 464.76-298.57 597.05-528.46l436.44-410.78c32.76-22.11 193.36-44.2 240.09-40.94-14.76 231 27.18 848.79 274.11 948.08 32.11-66.73-25.75-381.71-25.71-401.29.77-424.07-66-515.74 247.8-657.92 147.55-66.85 286.53-200.83 380.38-222.12 50.88 203.97 321.13 515.68 297.14 710.73-13.82 112.28-135.61 246.69-175.68 334.18-32.9 71.84-155.04 46.71-256.44 247.19 242.27-38.54 374.25.93 404.3-74.09 94.25-235.26 383.37-321.9 304.03-642.82-37.43-151.4-67.05-302.06 34.91-405.74 37.46 16.03 81.35 160.58 339.48 236.11 542.87 158.85 498.91-94.65 795.48 517.43 26.37 54.43-55.38 133.75 84.23 317.82 187.08-373.92 125.01-302.32 69.03-515.01-221.64-842.12-587.29-223.05-594.82-861.77-6.64-563-37.87-368.43-142.95-567.25 428.24-3.02 669.71 592.6 1388.52 677.17 912.98 107.41 1382.81-631.68 1293.82-751.42-63.12-84.92-597.36 147.11-1065.33 147.11-692.55 0-1119.82-439.26-1622.26-323.99-393.56 90.29-68.3 57.36-551.11-14.81-334.8-50.04-927.52 180.26-1359.03-53.87-206.67-112.14-325.76-584.61-887.56-557.57-124.4 5.99-236.61-197.23-307-165.24z"/>
  <path fill="none" d="M0 0h6773.32v3386.66H0z"/>
</svg>
